<?xml version="1.0" encoding="utf-8"?>
<!-- Svg Vector Icons : http://www.onlinewebfonts.com/icon -->
<!DOCTYPE svg PUBLIC "-//W3C//DTD SVG 1.1//EN" "http://www.w3.org/Graphics/SVG/1.1/DTD/svg11.dtd">
<svg version="1.1" xmlns="http://www.w3.org/2000/svg" xmlns:xlink="http://www.w3.org/1999/xlink" x="0px" y="0px" viewBox="0 0 256 256" enable-background="new 0 0 256 256" xml:space="preserve">
<metadata> Svg Vector Icons : http://www.onlinewebfonts.com/icon </metadata>
<g><g><path fill="#000000" d="M63.4,72.1L63.4,72.1c-1.6,0-3-1.3-3-3V39.6c0-1.6,1.3-2.9,3-2.9l0,0c1.6,0,3,1.3,3,2.9v29.5C66.4,70.8,65,72.1,63.4,72.1z"/><path fill="#000000" d="M63.4,177.7L63.4,177.7c-1.6,0-3-1.3-3-3v-29.5c0-1.6,1.3-3,3-3l0,0c1.6,0,3,1.3,3,3v29.5C66.4,176.4,65,177.7,63.4,177.7z"/><path fill="#000000" d="M72.3,145.7H54.6c-4.7,0-8.5-3.8-8.5-8.5V78c0-4.7,3.8-8.5,8.5-8.5h17.7c4.7,0,8.5,3.8,8.5,8.5v59.1C80.8,141.8,77,145.7,72.3,145.7z M54.6,74.8c-1.8,0-3.3,1.5-3.3,3.3v59.1c0,1.8,1.5,3.3,3.3,3.3h17.7c1.8,0,3.3-1.5,3.3-3.3V78c0-1.8-1.5-3.3-3.3-3.3L54.6,74.8L54.6,74.8z"/><path fill="#000000" d="M134.2,113.4L134.2,113.4c-1.6,0-3-1.3-3-3V80.9c0-1.6,1.3-3,3-3l0,0c1.6,0,3,1.3,3,3v29.5C137.2,112,135.9,113.4,134.2,113.4z"/><path fill="#000000" d="M134.2,219L134.2,219c-1.6,0-3-1.3-3-2.9v-29.5c0-1.6,1.3-3,3-3l0,0c1.6,0,3,1.3,3,3V216C137.2,217.6,135.9,219,134.2,219z"/><path fill="#000000" d="M143.1,186.9h-17.7c-4.7,0-8.5-3.8-8.5-8.5v-59.1c0-4.7,3.8-8.5,8.5-8.5h17.7c4.7,0,8.5,3.8,8.5,8.5v59.1C151.6,183.1,147.8,186.9,143.1,186.9z M125.4,116c-1.8,0-3.3,1.5-3.3,3.3v59.1c0,1.8,1.5,3.3,3.3,3.3h17.7c1.8,0,3.3-1.5,3.3-3.3v-59.1c0-1.8-1.5-3.3-3.3-3.3L125.4,116L125.4,116z"/><path fill="#000000" d="M205.1,92.9L205.1,92.9c-1.6,0-3-1.3-3-3V60.4c0-1.6,1.3-3,3-3l0,0c1.6,0,3,1.3,3,3V90C208,91.6,206.7,92.9,205.1,92.9z"/><path fill="#000000" d="M205.1,198.5L205.1,198.5c-1.6,0-3-1.3-3-3V166c0-1.6,1.3-3,3-3l0,0c1.6,0,3,1.3,3,3v29.5C208,197.2,206.7,198.5,205.1,198.5z"/><path fill="#000000" d="M213.9,166.4h-17.7c-4.7,0-8.5-3.8-8.5-8.6V98.8c0-4.7,3.8-8.5,8.5-8.5h17.7c4.7,0,8.5,3.8,8.5,8.5v59.1C222.5,162.6,218.6,166.4,213.9,166.4z M196.2,95.5c-1.8,0-3.3,1.5-3.3,3.3v59.1c0,1.8,1.5,3.3,3.3,3.3h17.7c1.8,0,3.3-1.5,3.3-3.3v-59c0-1.8-1.5-3.3-3.3-3.3L196.2,95.5L196.2,95.5z"/><path fill="#000000" d="M243.2,240.1H12.8c-1.5,0-2.8-1.3-2.8-2.8V18.7c0-1.5,1.3-2.8,2.8-2.8c1.5,0,2.8,1.3,2.8,2.8v215.8h227.6c1.5,0,2.8,1.3,2.8,2.8S244.7,240.1,243.2,240.1z"/></g></g>
</svg>